<?xml version="1.0" encoding="iso-8859-1"?>
<!-- Generator: Adobe Illustrator 19.0.0, SVG Export Plug-In . SVG Version: 6.00 Build 0)  -->
<svg version="1.1" id="Layer_1" xmlns="http://www.w3.org/2000/svg" xmlns:xlink="http://www.w3.org/1999/xlink" x="0px" y="0px"
	 viewBox="0 0 512 512" style="enable-background:new 0 0 512 512;" xml:space="preserve">
<path style="fill:#FFC72D;" d="M162.759,203.968l-31.278-58.732c-3.102-5.824-2.568-12.915,1.371-18.209l32.29-43.406
	c6.788-9.126,20.447-9.184,27.309-0.104l32.802,43.407c2.443,3.234,3.657,7.229,3.422,11.277
	c-1.68,28.988-17.166,55.893-41.424,71.97C178.87,215.727,167.498,212.867,162.759,203.968z"/>
<path style="fill:#3797D3;" d="M502.022,291.523c0,0,0-0.011-0.011-0.023c-29.421-85.406-105.413-106.315-188.939-135.817
	c-16.942-6.076-35.863-12.834-57.071-20.491c-12.072-4.358-24.883-9.011-38.491-14.006c-10.706-3.925-22.244,3.595-22.915,15.041
	c-0.808,13.972-6.702,27.182-16.259,37.171c-31.801,33.257-88.519,18.421-99.362-26.886c-4.346-18.136-20.252-30.8-38.673-30.8
	h-0.614C17.806,115.713,0,133.508,0,155.399v193.957c0,9.421,7.646,17.067,17.067,17.067h477.867
	c9.421,0,17.067-7.646,17.067-17.067C512,328.334,507.965,307.753,502.022,291.523z"/>
<g>
	<path style="fill:#4881C2;" d="M512,349.356c0,9.421-7.646,17.067-17.067,17.067H256V135.192
		c21.208,7.657,40.129,14.416,57.071,20.491c90.833,32.082,159.99,51.776,188.939,135.817c0.011,0.011,0.011,0.023,0.011,0.023
		C507.895,307.56,512,328.204,512,349.356z"/>
	<path style="fill:#4881C2;" d="M132.085,293.457H87.937c-9.425,0-17.067-7.641-17.067-17.067s7.641-17.067,17.067-17.067h44.149
		c9.425,0,17.067,7.641,17.067,17.067S141.511,293.457,132.085,293.457z"/>
	<path style="fill:#4881C2;" d="M391.839,366.423h-50.904L146.398,190.534c12.266-2.172,23.427-8.234,31.937-17.135L391.839,366.423
		z"/>
</g>
<polygon style="fill:#2F66A3;" points="391.839,366.423 256,243.614 256,289.63 340.935,366.423 "/>
<path style="fill:#FFC72D;" d="M511.158,332.289H0v85.902c0,9.432,7.646,17.067,17.067,17.067h477.867
	c9.421,0,17.067-7.634,17.067-17.067v-68.836C512,344.055,511.812,339.207,511.158,332.289z"/>
<path style="fill:#FFAF00;" d="M512,349.356v68.836c0,9.432-7.646,17.067-17.067,17.067H256V332.289h255.158
	C511.716,337.933,512,343.622,512,349.356z"/>
<g>
</g>
<g>
</g>
<g>
</g>
<g>
</g>
<g>
</g>
<g>
</g>
<g>
</g>
<g>
</g>
<g>
</g>
<g>
</g>
<g>
</g>
<g>
</g>
<g>
</g>
<g>
</g>
<g>
</g>
</svg>
